<?xml version="1.0" encoding="UTF-8"?>
<svg width="24px" height="24px" viewBox="0 0 24 24" version="1.1" xmlns="http://www.w3.org/2000/svg" xmlns:xlink="http://www.w3.org/1999/xlink">
    <!-- Generator: Sketch 48.2 (47327) - http://www.bohemiancoding.com/sketch -->
    <title>filter-icon</title>
    <desc>Created with Sketch.</desc>
    <defs></defs>
    <g id="Page-1" stroke="none" stroke-width="1" fill="none" fill-rule="evenodd">
        <g id="filter-icon" fill="#F34747" fill-rule="nonzero">
            <path d="M21.49,3.84137167e-16 L1.72,3.84137167e-16 C1.26208973,-7.73921991e-06 0.82307868,0.182578096 0.500227104,0.507306716 C0.177375528,0.832035336 -0.00266226909,1.27209747 -3.33063519e-16,1.73 L-3.33063519e-16,2.34 C0.0107576487,2.92083923 0.27353822,3.46829875 0.72,3.84 L8.41,10 L8.41,22.37 C8.39921464,22.7985814 8.56195853,23.2133569 8.86131835,23.5202477 C9.16067818,23.8271386 9.57128295,24.0001357 10,24 C10.4216035,23.99667 10.8259381,23.8320736 11.13,23.54 L14.13,20.67 C14.5215411,20.2967883 14.7452147,19.7808961 14.75,19.24 L14.75,10.07 L22.42,4.17 C22.88295,3.79955382 23.1576685,3.24279084 23.17,2.65 L23.17,1.73 C23.1703911,0.793737824 22.4258711,0.0270595211 21.49,3.84137167e-16 Z M21.68,2.64 C21.6753697,2.7597177 21.621003,2.87207551 21.53,2.95 L13.42,9.2 C13.3299581,9.2786615 13.2758047,9.39057858 13.27,9.51 L13.27,19.25 C13.2624531,19.3698202 13.2128771,19.4831368 13.13,19.57 L10.13,22.44 L10.05,22.44 C10.05,22.44 9.99,22.44 9.99,22.34 L9.99,9.51 C9.97431951,9.38410748 9.90506286,9.27110978 9.8,9.2 L1.68,2.65 C1.59174625,2.56998731 1.53797389,2.45885778 1.53,2.34 L1.53,1.74 C1.53,1.6350659 1.6150659,1.55 1.72,1.55 L21.49,1.55 C21.5949341,1.55 21.68,1.6350659 21.68,1.74 L21.68,2.65 L21.68,2.64 Z" id="Shape"></path>
        </g>
    </g>
</svg>